<svg version="1.1" id="Layer_1" xmlns="http://www.w3.org/2000/svg" xmlns:xlink="http://www.w3.org/1999/xlink" x="0px" y="0px"
	 width="100%" viewBox="0 0 500 500" enable-background="new 0 0 500 500" xml:space="preserve">
<path fill="#4763E5" opacity="1.000000" stroke="none" 
	d="
M220.000000,0.999999 
	C247.687561,1.000000 275.375122,1.000000 303.620667,1.329611 
	C305.395874,3.216214 306.464966,4.921223 307.851593,6.308926 
	C370.483337,68.989799 433.137756,131.648026 495.830566,194.267822 
	C497.315186,195.750687 499.266449,196.766373 501.000000,198.000000 
	C501.000000,232.687561 501.000000,267.375122 500.670410,302.441956 
	C498.672485,301.492706 496.860046,300.308990 495.358032,298.813507 
	C478.904449,282.430878 462.546082,265.952148 446.011780,249.651764 
	C444.274872,247.939438 441.578217,247.200684 439.265381,245.546722 
	C438.603271,238.470001 438.657898,231.717712 437.288635,225.267670 
	C431.334259,197.219009 412.416290,181.449554 386.218628,173.297302 
	C381.582611,171.854660 379.686951,170.002502 378.841217,165.224396 
	C374.499756,140.696365 359.729126,125.601517 336.957520,121.440468 
	C335.496185,119.115067 334.315948,116.891464 332.615570,115.186623 
	C296.577911,79.054916 260.471466,42.991848 224.428894,6.865039 
	C222.714966,5.147113 221.465683,2.965611 220.000000,0.999999 
z"/>
<path fill="#3840C4" opacity="1.000000" stroke="none" 
	d="
M1.000007,355.000000 
	C1.000000,326.979095 1.000000,298.958221 1.329616,270.557983 
	C3.452794,271.632385 5.393328,272.938904 7.018315,274.561401 
	C44.049046,311.536041 81.035713,348.554779 118.078423,385.517426 
	C119.804054,387.239288 121.972771,388.517151 124.020607,390.413177 
	C123.676743,395.286438 125.071404,398.784668 129.216873,400.996399 
	C134.545883,403.839569 139.816406,406.792419 145.122009,410.073669 
	C146.438293,412.483063 147.431259,414.828674 149.098022,416.503937 
	C175.216919,442.756348 201.436813,468.908325 227.576279,495.140350 
	C229.287521,496.857727 230.536179,499.036072 232.000000,501.000000 
	C203.979111,501.000000 175.958206,501.000000 147.389862,500.656860 
	C145.460953,498.275421 144.364655,495.952667 142.656403,494.240448 
	C97.695061,449.174438 52.684830,404.157104 7.603885,359.210754 
	C5.798163,357.410400 3.218876,356.385956 1.000007,355.000000 
z"/>
<path fill="#4969EB" opacity="1.000000" stroke="none" 
	d="
M501.000000,197.531342 
	C499.266449,196.766373 497.315186,195.750687 495.830566,194.267822 
	C433.137756,131.648026 370.483337,68.989799 307.851593,6.308926 
	C306.464966,4.921223 305.395874,3.216214 304.089355,1.329611 
	C338.354218,1.000000 372.708466,1.000000 407.620667,1.329619 
	C409.276459,3.096759 410.227142,4.681118 411.493713,5.950204 
	C439.694275,34.207054 467.919189,62.439617 496.190216,90.625969 
	C497.556580,91.988258 499.386139,92.885963 501.000000,94.000008 
	C501.000000,128.354233 501.000000,162.708450 501.000000,197.531342 
z"/>
<path fill="#4257DA" opacity="1.000000" stroke="none" 
	d="
M501.000000,401.000000 
	C501.000000,423.020905 501.000000,445.041779 500.670410,467.441956 
	C498.547821,466.368073 496.607849,465.062073 494.983398,463.440094 
	C458.200165,426.713165 421.467804,389.935272 384.646973,353.246124 
	C382.857056,351.462616 380.347565,350.401276 378.103638,348.539246 
	C378.025299,340.085999 377.734070,332.084015 378.104584,324.112762 
	C378.361298,318.589569 376.450439,315.258636 371.501678,312.589661 
	C354.825500,303.595947 338.344360,294.236755 321.900238,284.822449 
	C320.218567,283.859680 318.196289,281.599792 318.175629,279.919128 
	C317.958649,262.283356 318.117615,244.642914 318.489624,227.100464 
	C319.874634,227.969940 321.070251,228.614792 321.991882,229.534286 
	C343.082947,250.576385 364.164886,271.627838 385.161072,292.764374 
	C386.472107,294.084167 387.067444,296.114929 387.684631,297.972778 
	C386.510651,299.197052 384.759399,300.452026 384.938782,301.297211 
	C385.715546,304.956757 387.056549,308.496552 388.385986,312.690857 
	C394.245880,310.089355 399.514862,307.750183 404.959656,305.736755 
	C406.090454,307.207611 406.962830,308.435303 408.012421,309.485962 
	C437.502075,339.005707 467.000519,368.516663 496.545868,397.980591 
	C497.793518,399.224762 499.504761,400.004120 501.000000,401.000000 
z"/>
<path fill="#3A45C9" opacity="1.000000" stroke="none" 
	d="
M123.935120,390.001831 
	C121.972771,388.517151 119.804054,387.239288 118.078423,385.517426 
	C81.035713,348.554779 44.049046,311.536041 7.018315,274.561401 
	C5.393328,272.938904 3.452794,271.632385 1.329616,270.089355 
	C1.000000,240.979111 1.000000,211.958206 1.343167,182.547409 
	C3.957090,183.771194 6.502586,185.107559 8.455364,187.042206 
	C24.883270,203.317566 41.188396,219.716766 57.578453,236.030487 
	C59.082733,237.527756 60.921013,238.689438 62.688950,240.464783 
	C63.316891,276.967834 91.997330,313.161896 120.032478,312.827576 
	C120.973183,308.790955 121.928078,304.693420 122.900864,300.519104 
	C120.830353,299.889923 119.247742,299.429962 117.678238,298.928925 
	C95.660461,291.899811 78.054428,270.670135 77.419632,250.096680 
	C78.931221,251.063477 80.255615,251.801483 81.289001,252.831467 
	C98.545418,270.031158 115.785286,287.247711 132.955215,304.533661 
	C134.301956,305.889526 135.104401,307.786011 135.912842,309.657623 
	C134.664352,310.469910 133.730682,311.286163 132.650299,311.604584 
	C125.230614,313.791321 123.913811,319.050995 124.013611,326.115082 
	C124.314384,347.406036 124.005974,368.705627 123.935120,390.001831 
z"/>
<path fill="#363BBF" opacity="1.000000" stroke="none" 
	d="
M1.000007,355.468628 
	C3.218876,356.385956 5.798163,357.410400 7.603885,359.210754 
	C52.684830,404.157104 97.695061,449.174438 142.656403,494.240448 
	C144.364655,495.952667 145.460953,498.275421 146.921204,500.656860 
	C122.645775,501.000000 98.291542,501.000000 73.379280,500.670410 
	C71.843880,499.024048 71.013123,497.561035 69.867393,496.412170 
	C48.426708,474.912567 26.961102,453.437744 5.446456,432.012238 
	C4.200270,430.771210 2.492796,429.993378 0.999999,429.000000 
	C1.000000,404.645782 1.000000,380.291534 1.000007,355.468628 
z"/>
<path fill="#4053D6" opacity="1.000000" stroke="none" 
	d="
M378.173157,349.003632 
	C380.347565,350.401276 382.857056,351.462616 384.646973,353.246124 
	C421.467804,389.935272 458.200165,426.713165 494.983398,463.440094 
	C496.607849,465.062073 498.547821,466.368073 500.670410,467.910645 
	C501.000000,478.936279 501.000000,489.872589 501.000000,501.000000 
	C486.979675,501.000000 472.958496,501.000000 458.434143,500.642822 
	C456.547180,498.283661 455.429932,496.016205 453.739807,494.319305 
	C425.945496,466.413147 398.064362,438.593475 370.264313,410.692993 
	C368.557617,408.980164 367.363708,406.756409 366.136719,404.501160 
	C367.500977,403.584747 368.598358,402.770569 369.828766,402.318054 
	C376.406311,399.898712 378.424103,395.322113 378.165070,388.370819 
	C377.676788,375.266724 378.118195,362.127960 378.173157,349.003632 
z"/>
<path fill="#3F50D4" opacity="1.000000" stroke="none" 
	d="
M1.000000,82.000000 
	C1.000000,58.645771 1.000000,35.291542 1.329603,11.558028 
	C3.448014,12.627692 5.383730,13.929502 7.004030,15.547229 
	C42.636063,51.122654 78.218330,86.747940 113.877228,122.296379 
	C115.817024,124.230171 118.341286,125.577682 120.467987,127.554993 
	C117.616951,138.553131 112.700676,149.204834 112.751282,159.832855 
	C112.807495,171.637604 108.151161,176.653961 97.949272,178.791840 
	C96.660492,176.890640 95.620300,175.170029 94.240967,173.787827 
	C64.912720,144.398270 35.557224,115.035858 6.155590,85.719749 
	C4.673866,84.242340 2.729143,83.229271 1.000000,82.000000 
z"/>
<path fill="#3D4BCF" opacity="1.000000" stroke="none" 
	d="
M1.000000,82.468658 
	C2.729143,83.229271 4.673866,84.242340 6.155590,85.719749 
	C35.557224,115.035858 64.912720,144.398270 94.240967,173.787827 
	C95.620300,175.170029 96.660492,176.890640 97.742050,179.057831 
	C84.624916,186.970963 74.093582,196.920883 69.044693,211.049606 
	C65.742897,220.289337 64.673515,230.326797 62.604202,240.006958 
	C60.921013,238.689438 59.082733,237.527756 57.578453,236.030487 
	C41.188396,219.716766 24.883270,203.317566 8.455364,187.042206 
	C6.502586,185.107559 3.957090,183.771194 1.343167,182.078751 
	C1.000000,148.979111 1.000000,115.958214 1.000000,82.468658 
z"/>
<path fill="#435BDE" opacity="1.000000" stroke="none" 
	d="
M501.000000,400.531342 
	C499.504761,400.004120 497.793518,399.224762 496.545868,397.980591 
	C467.000519,368.516663 437.502075,339.005707 408.012421,309.485962 
	C406.962830,308.435303 406.090454,307.207611 405.207336,305.531067 
	C417.565613,297.717865 427.859070,288.238525 432.778351,274.694000 
	C436.100677,265.546600 437.221344,255.599579 439.326843,246.010254 
	C441.578217,247.200684 444.274872,247.939438 446.011780,249.651764 
	C462.546082,265.952148 478.904449,282.430878 495.358032,298.813507 
	C496.860046,300.308990 498.672485,301.492706 500.670410,302.910583 
	C501.000000,335.354218 501.000000,367.708466 501.000000,400.531342 
z"/>
<path fill="#4155D7" opacity="1.000000" stroke="none" 
	d="
M120.593483,127.198105 
	C118.341286,125.577682 115.817024,124.230171 113.877228,122.296379 
	C78.218330,86.747940 42.636063,51.122654 7.004030,15.547229 
	C5.383730,13.929502 3.448014,12.627692 1.329603,11.089371 
	C1.000000,7.687641 1.000000,4.375282 1.000000,1.000000 
	C20.687521,1.000000 40.375103,1.000000 60.620724,1.329598 
	C62.396744,3.216970 63.467922,4.921214 64.854431,6.310832 
	C91.102386,32.617649 117.380722,58.894184 143.682663,85.147034 
	C145.202881,86.664413 146.978027,87.926399 148.434814,89.592148 
	C136.252472,100.266724 127.383728,112.962700 120.593483,127.198105 
z"/>
<path fill="#3E4ED1" opacity="1.000000" stroke="none" 
	d="
M365.931244,404.770355 
	C367.363708,406.756409 368.557617,408.980164 370.264313,410.692993 
	C398.064362,438.593475 425.945496,466.413147 453.739807,494.319305 
	C455.429932,496.016205 456.547180,498.283661 457.965485,500.642822 
	C431.979095,501.000000 405.958221,501.000000 379.434143,500.642853 
	C377.666107,498.402618 376.665833,496.256653 375.095978,494.676575 
	C356.137665,475.594299 337.102936,456.587891 318.058838,437.591095 
	C316.658875,436.194611 315.033173,435.024414 313.773560,433.503357 
	C331.333588,423.761902 348.632416,414.266113 365.931244,404.770355 
z"/>
<path fill="#3B45C9" opacity="1.000000" stroke="none" 
	d="
M232.468658,501.000000 
	C230.536179,499.036072 229.287521,496.857727 227.576279,495.140350 
	C201.436813,468.908325 175.216919,442.756348 149.098022,416.503937 
	C147.431259,414.828674 146.438293,412.483063 145.467896,410.165863 
	C158.917297,417.304352 172.101456,424.605377 185.103287,432.217834 
	C189.303879,434.677216 192.818176,434.845886 197.085480,432.326843 
	C207.912125,425.935791 218.965942,419.929596 230.020355,414.114105 
	C231.537018,416.268280 232.796722,418.242493 234.411896,419.862244 
	C259.446106,444.967255 284.541016,470.011719 309.563599,495.128296 
	C311.278809,496.850006 312.531952,499.032043 314.000000,501.000000 
	C286.979095,501.000000 259.958221,501.000000 232.468658,501.000000 
z"/>
<path fill="#3C4ACD" opacity="1.000000" stroke="none" 
	d="
M314.468658,501.000000 
	C312.531952,499.032043 311.278809,496.850006 309.563599,495.128296 
	C284.541016,470.011719 259.446106,444.967255 234.411896,419.862244 
	C232.796722,418.242493 231.537018,416.268280 230.222031,413.843719 
	C236.078979,409.936432 241.715561,406.422119 247.638260,403.484558 
	C249.471268,402.575439 252.561707,402.369324 254.262619,403.311127 
	C270.282471,412.181000 286.047974,421.510834 302.083008,430.352295 
	C305.483307,432.227173 309.681702,432.654663 313.512390,433.749023 
	C315.033173,435.024414 316.658875,436.194611 318.058838,437.591095 
	C337.102936,456.587891 356.137665,475.594299 375.095978,494.676575 
	C376.665833,496.256653 377.666107,498.402618 378.965515,500.642853 
	C357.645782,501.000000 336.291534,501.000000 314.468658,501.000000 
z"/>
<path fill="#455FE1" opacity="1.000000" stroke="none" 
	d="
M219.531342,0.999999 
	C221.465683,2.965611 222.714966,5.147113 224.428894,6.865039 
	C260.471466,42.991848 296.577911,79.054916 332.615570,115.186623 
	C334.315948,116.891464 335.496185,119.115067 336.494598,121.472610 
	C324.450775,121.249962 313.770630,123.909004 304.310303,131.509521 
	C289.452637,99.709381 265.837921,78.718849 231.959869,69.481247 
	C230.628296,67.269951 229.578232,65.162148 228.002487,63.576878 
	C209.058121,44.517746 190.017960,25.553833 171.066605,6.501592 
	C169.475525,4.902039 168.344666,2.844671 167.000000,1.000000 
	C184.354233,1.000000 201.708450,1.000000 219.531342,0.999999 
z"/>
<path fill="#4B6FF0" opacity="1.000000" stroke="none" 
	d="
M501.000000,93.531349 
	C499.386139,92.885963 497.556580,91.988258 496.190216,90.625969 
	C467.919189,62.439617 439.694275,34.207054 411.493713,5.950204 
	C410.227142,4.681118 409.276459,3.096759 408.089325,1.329619 
	C438.926910,1.000000 469.853851,1.000000 501.000000,1.000000 
	C501.000000,31.687214 501.000000,62.374947 501.000000,93.531349 
z"/>
<path fill="#4258DB" opacity="1.000000" stroke="none" 
	d="
M148.634521,89.307243 
	C146.978027,87.926399 145.202881,86.664413 143.682663,85.147034 
	C117.380722,58.894184 91.102386,32.617649 64.854431,6.310832 
	C63.467922,4.921214 62.396744,3.216970 61.089382,1.329598 
	C77.687561,1.000000 94.375122,1.000000 111.610123,1.343158 
	C113.773384,3.959196 115.109909,6.509329 117.048279,8.462035 
	C136.290497,27.846561 155.655075,47.109623 174.906326,66.485237 
	C176.610306,68.200218 177.758728,70.467178 178.866547,72.659668 
	C167.473526,76.300285 157.721527,82.199295 148.634521,89.307243 
z"/>
<path fill="#435BDE" opacity="1.000000" stroke="none" 
	d="
M179.165192,72.477768 
	C177.758728,70.467178 176.610306,68.200218 174.906326,66.485237 
	C155.655075,47.109623 136.290497,27.846561 117.048279,8.462035 
	C115.109909,6.509329 113.773384,3.959196 112.078781,1.343158 
	C130.020889,1.000000 148.041794,1.000000 166.531342,1.000000 
	C168.344666,2.844671 169.475525,4.902039 171.066605,6.501592 
	C190.017960,25.553833 209.058121,44.517746 228.002487,63.576878 
	C229.578232,65.162148 230.628296,67.269951 231.555496,69.535339 
	C227.304977,69.287125 223.440216,68.247139 219.534744,68.060730 
	C205.867310,67.408386 192.295029,68.032829 179.165192,72.477768 
z"/>
<path fill="#3436BB" opacity="1.000000" stroke="none" 
	d="
M0.999999,429.468658 
	C2.492796,429.993378 4.200270,430.771210 5.446456,432.012238 
	C26.961102,453.437744 48.426708,474.912567 69.867393,496.412170 
	C71.013123,497.561035 71.843880,499.024048 72.910622,500.670410 
	C49.073139,501.000000 25.146275,501.000000 1.000000,501.000000 
	C1.000000,477.312897 1.000000,453.625092 0.999999,429.468658 
z"/>
<path fill="#FCFCFE" opacity="1.000000" stroke="none" 
	d="
M178.866547,72.659668 
	C192.295029,68.032829 205.867310,67.408386 219.534744,68.060730 
	C223.440216,68.247139 227.304977,69.287125 231.592773,69.881607 
	C265.837921,78.718849 289.452637,99.709381 304.310303,131.509521 
	C313.770630,123.909004 324.450775,121.249962 336.533447,121.816010 
	C359.729126,125.601517 374.499756,140.696365 378.841217,165.224396 
	C379.686951,170.002502 381.582611,171.854660 386.218628,173.297302 
	C412.416290,181.449554 431.334259,197.219009 437.288635,225.267670 
	C438.657898,231.717712 438.603271,238.470001 439.265381,245.546722 
	C437.221344,255.599579 436.100677,265.546600 432.778351,274.694000 
	C427.859070,288.238525 417.565613,297.717865 405.031494,305.205383 
	C399.514862,307.750183 394.245880,310.089355 388.385986,312.690857 
	C387.056549,308.496552 385.715546,304.956757 384.938782,301.297211 
	C384.759399,300.452026 386.510651,299.197052 388.037415,297.952515 
	C403.238708,292.156769 414.351746,282.885254 420.614990,267.925934 
	C422.371094,261.450348 424.614532,255.249985 425.166504,248.902527 
	C426.799103,230.128326 422.373291,213.199585 407.841156,200.048828 
	C398.184265,191.309952 386.545197,186.601517 373.954620,184.165344 
	C369.067139,183.219666 367.018341,180.927963 366.669128,175.836975 
	C365.990112,165.937912 363.346008,156.526215 357.343811,148.329468 
	C345.204834,131.752106 322.439484,130.979858 309.166992,146.644501 
	C307.706207,148.368561 305.732941,149.658371 303.646912,151.209442 
	C298.072845,152.551651 296.564209,148.913406 295.176331,145.129456 
	C287.996277,125.553673 276.492096,109.257111 259.400604,96.980362 
	C228.309052,74.647453 191.158447,77.445450 164.865570,94.679115 
	C146.918045,107.002052 135.702179,123.814575 129.084213,143.996307 
	C125.110794,156.113449 125.490509,168.539139 125.802628,181.255219 
	C121.952126,183.312775 118.486740,185.531952 114.707756,186.856125 
	C86.513657,196.735413 73.555641,221.051865 77.097008,250.003738 
	C78.054428,270.670135 95.660461,291.899811 117.678238,298.928925 
	C119.247742,299.429962 120.830353,299.889923 122.900864,300.519104 
	C121.928078,304.693420 120.973183,308.790955 120.032478,312.827576 
	C91.997330,313.161896 63.316891,276.967834 62.688953,240.464783 
	C64.673515,230.326797 65.742897,220.289337 69.044693,211.049606 
	C74.093582,196.920883 84.624916,186.970963 97.832703,179.396027 
	C108.151161,176.653961 112.807495,171.637604 112.751282,159.832855 
	C112.700676,149.204834 117.616951,138.553131 120.467987,127.554993 
	C127.383728,112.962700 136.252472,100.266724 148.434814,89.592148 
	C157.721527,82.199295 167.473526,76.300285 178.866547,72.659668 
z"/>
<path fill="#FBFCFE" opacity="1.000000" stroke="none" 
	d="
M313.773560,433.503357 
	C309.681702,432.654663 305.483307,432.227173 302.083008,430.352295 
	C286.047974,421.510834 270.282471,412.181000 254.262619,403.311127 
	C252.561707,402.369324 249.471268,402.575439 247.638260,403.484558 
	C241.715561,406.422119 236.078979,409.936432 230.130463,413.498871 
	C218.965942,419.929596 207.912125,425.935791 197.085480,432.326843 
	C192.818176,434.845886 189.303879,434.677216 185.103287,432.217834 
	C172.101456,424.605377 158.917297,417.304352 145.458038,409.790222 
	C139.816406,406.792419 134.545883,403.839569 129.216873,400.996399 
	C125.071404,398.784668 123.676743,395.286438 124.020599,390.413177 
	C124.005974,368.705627 124.314384,347.406036 124.013611,326.115082 
	C123.913811,319.050995 125.230614,313.791321 132.650299,311.604584 
	C133.730682,311.286163 134.664352,310.469910 136.257294,309.550293 
	C151.629501,301.028748 166.441544,292.896118 181.142319,284.567047 
	C182.596344,283.743225 184.302246,281.726654 184.315338,280.249664 
	C184.449142,265.165039 184.256439,250.077484 184.280426,234.539078 
	C184.435379,230.094498 184.609741,226.095901 184.453613,222.110275 
	C184.298950,218.161819 185.873032,215.573807 189.343872,213.661636 
	C209.597214,202.503525 229.787552,191.231079 250.375153,180.064697 
	C252.320572,180.625351 254.027313,180.869843 255.438751,181.649170 
	C274.972260,192.434616 294.524231,203.190536 313.879608,214.288712 
	C315.883087,215.437485 316.998810,218.606384 317.887939,221.068527 
	C318.530945,222.848999 318.115814,225.011597 318.172577,227.003769 
	C318.117615,244.642914 317.958649,262.283356 318.175629,279.919128 
	C318.196289,281.599792 320.218567,283.859680 321.900238,284.822449 
	C338.344360,294.236755 354.825500,303.595947 371.501678,312.589661 
	C376.450439,315.258636 378.361298,318.589569 378.104584,324.112762 
	C377.734070,332.084015 378.025299,340.085999 378.103638,348.539246 
	C378.118195,362.127960 377.676788,375.266724 378.165070,388.370819 
	C378.424103,395.322113 376.406311,399.898712 369.828766,402.318054 
	C368.598358,402.770569 367.500977,403.584747 366.136719,404.501160 
	C348.632416,414.266113 331.333588,423.761902 313.773560,433.503357 
M244.114777,385.077942 
	C244.114777,367.682404 244.114777,350.286865 244.114777,331.881378 
	C232.186508,338.710419 221.014999,345.106201 209.165726,351.761200 
	C207.275436,352.805054 205.485825,354.140930 203.474701,354.834351 
	C198.730133,356.470184 197.790207,359.663635 197.888062,364.409088 
	C198.207260,379.892212 197.996246,395.386078 198.016937,410.875793 
	C198.018799,412.261230 198.221100,413.646393 198.383331,415.704315 
	C213.556320,407.016357 228.137558,398.735413 242.590485,390.236298 
	C243.541153,389.677246 243.511627,387.451385 244.114777,385.077942 
M169.048782,349.422760 
	C158.937561,343.812500 148.826340,338.202240 138.500381,332.472809 
	C138.163971,333.536591 137.905930,333.973083 137.905029,334.410095 
	C137.869247,351.891388 137.781616,369.373566 137.976578,386.852570 
	C137.993073,388.332825 139.594345,390.347931 141.008728,391.174072 
	C154.212906,398.886749 167.532166,406.402679 180.837646,413.941132 
	C181.776169,414.472839 182.869827,414.730713 184.481720,415.338593 
	C184.481720,401.487061 183.436478,388.085754 184.777527,374.927643 
	C186.102081,361.931366 182.236954,353.672882 169.048782,349.422760 
M296.524597,411.011566 
	C298.946198,412.328857 301.367767,413.646179 304.062836,415.112274 
	C304.265381,413.801880 304.452820,413.152344 304.453491,412.502625 
	C304.470856,395.504761 304.572662,378.505341 304.316376,361.511353 
	C304.289520,359.732117 302.530823,357.299744 300.890533,356.333618 
	C289.708893,349.747803 278.348114,343.465790 267.034668,337.104370 
	C264.190369,335.505035 261.308014,333.973389 257.849243,332.086670 
	C257.849243,351.052948 257.784790,369.196716 257.984741,387.337555 
	C257.999054,388.638062 259.690308,390.364746 261.035858,391.136078 
	C272.585815,397.756958 284.235840,404.203278 296.524597,411.011566 
M364.470978,382.385864 
	C364.470978,365.983948 364.470978,349.582031 364.470978,332.718933 
	C363.083405,333.129303 362.424927,333.200836 361.893890,333.499146 
	C348.123199,341.234589 334.317841,348.911560 320.678223,356.872345 
	C319.273987,357.691895 318.166016,360.212860 318.123138,361.973602 
	C317.880219,371.956604 318.003143,381.948456 318.002289,391.937317 
	C318.001678,399.504120 318.002197,407.070892 318.002197,415.436890 
	C332.253052,407.516205 345.605957,399.815247 359.252472,392.675507 
	C363.493591,390.456604 365.151733,387.817413 364.470978,382.385864 
M275.753082,314.224640 
	C272.420380,316.158661 269.087677,318.092712 265.200500,320.348511 
	C280.344757,328.880890 294.660461,336.991486 309.052704,344.963806 
	C310.125580,345.558105 312.049072,345.707855 313.068115,345.144165 
	C327.607147,337.101196 342.058350,328.899536 356.739868,320.618164 
	C356.002167,319.982422 355.567322,319.462555 355.014679,319.152588 
	C341.240631,311.427521 327.499756,303.640076 313.602264,296.143005 
	C312.142456,295.355530 309.422638,295.697571 307.837067,296.544556 
	C297.283081,302.182312 286.878723,308.100220 275.753082,314.224640 
M156.019226,326.513763 
	C166.778137,332.502930 177.512192,338.537842 188.329681,344.419312 
	C189.582855,345.100677 191.684540,345.631226 192.742477,345.049316 
	C207.282059,337.051849 221.707413,328.846680 236.171417,320.686523 
	C235.806885,320.058167 235.714569,319.651093 235.470520,319.513824 
	C221.405869,311.604706 207.362396,303.655975 193.192398,295.939636 
	C191.982025,295.280548 189.668839,295.707245 188.297348,296.436798 
	C179.776291,300.969208 171.371902,305.721497 162.940857,310.422424 
	C157.184937,313.631805 151.448608,316.876282 145.166656,320.406799 
	C149.020508,322.570557 152.201080,324.356262 156.019226,326.513763 
M229.559082,233.969360 
	C233.196655,235.978531 237.188309,237.541107 240.399963,240.087494 
	C247.655121,245.839844 253.991318,245.224625 261.692535,240.208710 
	C272.748901,233.007523 284.682831,227.153732 297.000793,220.302750 
	C281.745300,211.854767 267.245544,203.796127 252.688690,195.841904 
	C251.878128,195.398987 250.387924,195.441727 249.563675,195.894669 
	C235.015106,203.889343 220.520966,211.983032 205.362061,220.418671 
	C213.634354,225.053894 221.274551,229.334946 229.559082,233.969360 
M212.594559,290.943298 
	C222.847031,296.646210 233.099487,302.349152 243.882278,308.347076 
	C244.000626,306.410187 244.143402,305.149261 244.144653,303.888214 
	C244.158417,289.920532 244.028824,275.951050 244.236206,261.986481 
	C244.286041,258.632111 243.069351,256.994751 240.243958,255.467056 
	C227.681137,248.674332 215.250290,241.637619 202.761398,234.707764 
	C201.404205,233.954681 199.980270,233.321854 198.462448,232.571533 
	C198.204651,233.567322 198.053833,233.879395 198.053101,234.191833 
	C198.028046,244.999954 197.993149,255.808167 198.014496,266.616241 
	C198.024979,271.931396 196.383575,278.268036 198.708923,282.273468 
	C201.024826,286.262512 207.370728,287.911926 212.594559,290.943298 
M290.084595,290.644806 
	C293.572510,288.712891 296.986298,286.627136 300.572357,284.898865 
	C303.326355,283.571564 304.272003,281.776764 304.227997,278.682556 
	C304.043365,265.702820 304.147369,252.718994 304.145782,239.736664 
	C304.145508,237.505096 304.145752,235.273529 304.145752,233.101242 
	C303.063141,233.101242 302.681763,232.984100 302.438721,233.118011 
	C288.323486,240.894485 274.185974,248.632355 260.174561,256.592224 
	C258.967285,257.278076 258.000336,259.427216 257.949799,260.931183 
	C257.715088,267.913849 257.841949,274.908722 257.841125,281.899200 
	C257.840118,290.478241 257.840851,299.057251 257.840851,308.528595 
	C268.907593,302.388214 279.172302,296.692871 290.084595,290.644806 
z"/>
<path fill="#435ADD" opacity="1.000000" stroke="none" 
	d="
M318.489624,227.100464 
	C318.115814,225.011597 318.530945,222.848999 317.887939,221.068527 
	C316.998810,218.606384 315.883087,215.437485 313.879608,214.288712 
	C294.524231,203.190536 274.972260,192.434616 255.438751,181.649170 
	C254.027313,180.869843 252.320572,180.625351 250.285812,179.735306 
	C248.601974,177.780731 247.529907,176.076920 246.143234,174.686981 
	C220.835068,149.319504 195.496780,123.982056 170.132202,98.670975 
	C168.612488,97.154465 166.818527,95.912758 165.152191,94.543175 
	C191.158447,77.445450 228.309052,74.647453 259.400604,96.980362 
	C276.492096,109.257111 287.996277,125.553673 295.176331,145.129456 
	C296.564209,148.913406 298.072845,152.551651 303.684845,151.556946 
	C305.252930,153.600266 306.182739,155.605148 307.648865,157.075134 
	C343.045074,192.565125 378.485931,228.010696 413.977844,263.404999 
	C415.827484,265.249603 418.200195,266.569672 420.329376,268.133942 
	C414.351746,282.885254 403.238708,292.156769 388.348541,297.794617 
	C387.067444,296.114929 386.472107,294.084167 385.161072,292.764374 
	C364.164886,271.627838 343.082947,250.576385 321.991882,229.534286 
	C321.070251,228.614792 319.874634,227.969940 318.489624,227.100464 
z"/>
<path fill="#3E4CCF" opacity="1.000000" stroke="none" 
	d="
M184.155029,234.990753 
	C184.256439,250.077484 184.449142,265.165039 184.315338,280.249664 
	C184.302246,281.726654 182.596344,283.743225 181.142319,284.567047 
	C166.441544,292.896118 151.629501,301.028748 136.504257,309.323914 
	C135.104401,307.786011 134.301956,305.889526 132.955215,304.533661 
	C115.785286,287.247711 98.545418,270.031158 81.289001,252.831467 
	C80.255615,251.801483 78.931221,251.063477 77.419632,250.096680 
	C73.555641,221.051865 86.513657,196.735413 114.707756,186.856125 
	C118.486740,185.531952 121.952126,183.312775 126.129211,181.345886 
	C128.363495,182.521835 130.170731,183.719910 131.677567,185.219772 
	C146.992203,200.463654 162.215027,215.800140 177.595474,230.977051 
	C179.372192,232.730255 181.949112,233.672516 184.155029,234.990753 
z"/>
<path fill="#4154D7" opacity="1.000000" stroke="none" 
	d="
M184.280426,234.539078 
	C181.949112,233.672516 179.372192,232.730255 177.595474,230.977051 
	C162.215027,215.800140 146.992203,200.463654 131.677567,185.219772 
	C130.170731,183.719910 128.363495,182.521835 126.369095,181.093033 
	C125.490509,168.539139 125.110794,156.113449 129.084213,143.996307 
	C135.702179,123.814575 146.918045,107.002052 164.865570,94.679115 
	C166.818527,95.912758 168.612488,97.154465 170.132202,98.670975 
	C195.496780,123.982056 220.835068,149.319504 246.143234,174.686981 
	C247.529907,176.076920 248.601974,177.780731 249.909851,179.667847 
	C229.787552,191.231079 209.597214,202.503525 189.343872,213.661636 
	C185.873032,215.573807 184.298950,218.161819 184.453613,222.110275 
	C184.609741,226.095901 184.435379,230.094498 184.280426,234.539078 
z"/>
<path fill="#455FE0" opacity="1.000000" stroke="none" 
	d="
M420.614990,267.925934 
	C418.200195,266.569672 415.827484,265.249603 413.977844,263.404999 
	C378.485931,228.010696 343.045074,192.565125 307.648865,157.075134 
	C306.182739,155.605148 305.252930,153.600266 304.035339,151.497101 
	C305.732941,149.658371 307.706207,148.368561 309.166992,146.644501 
	C322.439484,130.979858 345.204834,131.752106 357.343811,148.329468 
	C363.346008,156.526215 365.990112,165.937912 366.669128,175.836975 
	C367.018341,180.927963 369.067139,183.219666 373.954620,184.165344 
	C386.545197,186.601517 398.184265,191.309952 407.841156,200.048828 
	C422.373291,213.199585 426.799103,230.128326 425.166504,248.902527 
	C424.614532,255.249985 422.371094,261.450348 420.614990,267.925934 
z"/>
<path fill="#3C47CA" opacity="1.000000" stroke="none" 
	d="
M169.357697,349.623932 
	C182.236954,353.672882 186.102081,361.931366 184.777527,374.927643 
	C183.436478,388.085754 184.481720,401.487061 184.481720,415.338593 
	C182.869827,414.730713 181.776169,414.472839 180.837646,413.941132 
	C167.532166,406.402679 154.212906,398.886749 141.008728,391.174072 
	C139.594345,390.347931 137.993073,388.332825 137.976578,386.852570 
	C137.781616,369.373566 137.869247,351.891388 137.905029,334.410095 
	C137.905930,333.973083 138.163971,333.536591 138.500381,332.472809 
	C148.826340,338.202240 158.937561,343.812500 169.357697,349.623932 
z"/>
<path fill="#3F4FD1" opacity="1.000000" stroke="none" 
	d="
M296.190277,410.856659 
	C284.235840,404.203278 272.585815,397.756958 261.035858,391.136078 
	C259.690308,390.364746 257.999054,388.638062 257.984741,387.337555 
	C257.784790,369.196716 257.849243,351.052948 257.849243,332.086670 
	C261.308014,333.973389 264.190369,335.505035 267.034668,337.104370 
	C278.348114,343.465790 289.708893,349.747803 300.890533,356.333618 
	C302.530823,357.299744 304.289520,359.732117 304.316376,361.511353 
	C304.572662,378.505341 304.470856,395.504761 304.453491,412.502625 
	C304.452820,413.152344 304.265381,413.801880 304.062836,415.112274 
	C301.367767,413.646179 298.946198,412.328857 296.190277,410.856659 
z"/>
<path fill="#4052D4" opacity="1.000000" stroke="none" 
	d="
M364.471130,382.866669 
	C365.151733,387.817413 363.493591,390.456604 359.252472,392.675507 
	C345.605957,399.815247 332.253052,407.516205 318.002197,415.436890 
	C318.002197,407.070892 318.001678,399.504120 318.002289,391.937317 
	C318.003143,381.948456 317.880219,371.956604 318.123138,361.973602 
	C318.166016,360.212860 319.273987,357.691895 320.678223,356.872345 
	C334.317841,348.911560 348.123199,341.234589 361.893890,333.499146 
	C362.424927,333.200836 363.083405,333.129303 364.470978,332.718933 
	C364.470978,349.582031 364.470978,365.983948 364.471130,382.866669 
z"/>
<path fill="#4254D6" opacity="1.000000" stroke="none" 
	d="
M276.089417,314.075867 
	C286.878723,308.100220 297.283081,302.182312 307.837067,296.544556 
	C309.422638,295.697571 312.142456,295.355530 313.602264,296.143005 
	C327.499756,303.640076 341.240631,311.427521 355.014679,319.152588 
	C355.567322,319.462555 356.002167,319.982422 356.739868,320.618164 
	C342.058350,328.899536 327.607147,337.101196 313.068115,345.144165 
	C312.049072,345.707855 310.125580,345.558105 309.052704,344.963806 
	C294.660461,336.991486 280.344757,328.880890 265.200500,320.348511 
	C269.087677,318.092712 272.420380,316.158661 276.089417,314.075867 
z"/>
<path fill="#3E4DCF" opacity="1.000000" stroke="none" 
	d="
M155.700439,326.327881 
	C152.201080,324.356262 149.020508,322.570557 145.166656,320.406799 
	C151.448608,316.876282 157.184937,313.631805 162.940857,310.422424 
	C171.371902,305.721497 179.776291,300.969208 188.297348,296.436798 
	C189.668839,295.707245 191.982025,295.280548 193.192398,295.939636 
	C207.362396,303.655975 221.405869,311.604706 235.470520,319.513824 
	C235.714569,319.651093 235.806885,320.058167 236.171417,320.686523 
	C221.707413,328.846680 207.282059,337.051849 192.742477,345.049316 
	C191.684540,345.631226 189.582855,345.100677 188.329681,344.419312 
	C177.512192,338.537842 166.778137,332.502930 155.700439,326.327881 
z"/>
<path fill="#4256D8" opacity="1.000000" stroke="none" 
	d="
M229.236908,233.792679 
	C221.274551,229.334946 213.634354,225.053894 205.362061,220.418671 
	C220.520966,211.983032 235.015106,203.889343 249.563675,195.894669 
	C250.387924,195.441727 251.878128,195.398987 252.688690,195.841904 
	C267.245544,203.796127 281.745300,211.854767 297.000793,220.302750 
	C284.682831,227.153732 272.748901,233.007523 261.692535,240.208710 
	C253.991318,245.224625 247.655121,245.839844 240.399963,240.087494 
	C237.188309,237.541107 233.196655,235.978531 229.236908,233.792679 
z"/>
<path fill="#4051D3" opacity="1.000000" stroke="none" 
	d="
M212.272095,290.765228 
	C207.370728,287.911926 201.024826,286.262512 198.708923,282.273468 
	C196.383575,278.268036 198.024979,271.931396 198.014496,266.616241 
	C197.993149,255.808167 198.028046,244.999954 198.053101,234.191833 
	C198.053833,233.879395 198.204651,233.567322 198.462448,232.571533 
	C199.980270,233.321854 201.404205,233.954681 202.761398,234.707764 
	C215.250290,241.637619 227.681137,248.674332 240.243958,255.467056 
	C243.069351,256.994751 244.286041,258.632111 244.236206,261.986481 
	C244.028824,275.951050 244.158417,289.920532 244.144653,303.888214 
	C244.143402,305.149261 244.000626,306.410187 243.882278,308.347076 
	C233.099487,302.349152 222.847031,296.646210 212.272095,290.765228 
z"/>
<path fill="#4154D7" opacity="1.000000" stroke="none" 
	d="
M289.760803,290.821167 
	C279.172302,296.692871 268.907593,302.388214 257.840851,308.528595 
	C257.840851,299.057251 257.840118,290.478241 257.841125,281.899200 
	C257.841949,274.908722 257.715088,267.913849 257.949799,260.931183 
	C258.000336,259.427216 258.967285,257.278076 260.174561,256.592224 
	C274.185974,248.632355 288.323486,240.894485 302.438721,233.118011 
	C302.681763,232.984100 303.063141,233.101242 304.145752,233.101242 
	C304.145752,235.273529 304.145508,237.505096 304.145782,239.736664 
	C304.147369,252.718994 304.043365,265.702820 304.227997,278.682556 
	C304.272003,281.776764 303.326355,283.571564 300.572357,284.898865 
	C296.986298,286.627136 293.572510,288.712891 289.760803,290.821167 
z"/>
<path fill="#3D49CC" opacity="1.000000" stroke="none" 
	d="
M243.938049,386.000824 
	C243.511627,387.451385 243.541153,389.677246 242.590485,390.236298 
	C228.137558,398.735413 213.556320,407.016357 198.383331,415.704315 
	C198.221100,413.646393 198.018799,412.261230 198.016937,410.875793 
	C197.996246,395.386078 198.207260,379.892212 197.888062,364.409088 
	C197.790207,359.663635 198.730133,356.470184 203.474701,354.834351 
	C205.485825,354.140930 207.275436,352.805054 209.599960,351.995514 
	C221.176178,363.441559 232.317703,374.653717 243.467300,385.857880 
	C243.569214,385.960266 243.778748,385.955536 243.938049,386.000824 
z"/>
<path fill="#3E4CCF" opacity="1.000000" stroke="none" 
	d="
M244.026413,385.539368 
	C243.778748,385.955536 243.569214,385.960266 243.467300,385.857880 
	C232.317703,374.653717 221.176178,363.441559 209.938843,351.865906 
	C221.014999,345.106201 232.186508,338.710419 244.114777,331.881378 
	C244.114777,350.286865 244.114777,367.682404 244.026413,385.539368 
z"/>
</svg>