<?xml version="1.0" standalone="no"?>
<!DOCTYPE svg PUBLIC "-//W3C//DTD SVG 20010904//EN"
 "http://www.w3.org/TR/2001/REC-SVG-20010904/DTD/svg10.dtd">
<svg version="1.0" xmlns="http://www.w3.org/2000/svg"
 width="512.000000pt" height="512.000000pt" viewBox="0 0 512.000000 512.000000"
 preserveAspectRatio="xMidYMid meet">

<g transform="translate(0.000000,512.000000) scale(0.100000,-0.100000)"
fill="#000000" stroke="none">
<path d="M2320 5044 c-133 -16 -264 -40 -383 -70 -435 -108 -847 -348 -1164
-677 -379 -394 -605 -865 -685 -1432 -19 -130 -15 -521 5 -658 51 -331 161
-654 312 -913 383 -655 997 -1084 1736 -1214 158 -28 482 -38 655 -21 723 74
1375 461 1792 1065 411 594 542 1340 361 2059 -110 439 -370 881 -700 1191
-361 340 -794 557 -1279 643 -123 21 -181 26 -380 28 -129 2 -251 1 -270 -1z
m405 -184 c810 -67 1518 -548 1876 -1275 159 -324 226 -600 236 -971 9 -349
-38 -623 -159 -929 -310 -782 -1025 -1333 -1863 -1435 -117 -15 -414 -14 -535
0 -516 63 -987 293 -1352 661 -615 622 -827 1552 -546 2397 78 236 234 516
400 720 366 447 935 760 1498 822 198 21 281 23 445 10z"/>
<path d="M3798 4157 c-89 -26 -157 -87 -198 -180 -58 -130 -27 -268 103 -468
139 -216 191 -380 190 -604 -1 -154 -15 -219 -118 -540 -46 -143 -107 -336
-135 -430 -28 -93 -56 -174 -61 -179 -6 -6 -13 -6 -19 0 -15 15 -640 1880
-640 1910 0 13 3 24 8 24 98 5 208 21 227 34 35 23 35 79 0 102 -23 15 -45 15
-261 3 -190 -10 -285 -10 -499 0 -191 9 -270 9 -284 1 -40 -21 -39 -90 1 -111
11 -6 63 -15 116 -20 53 -5 102 -15 108 -21 20 -21 274 -736 274 -770 0 -44
-372 -1159 -388 -1166 -7 -2 -17 -1 -22 4 -5 5 -154 441 -330 968 -213 635
-318 962 -311 969 5 5 54 14 108 19 54 5 108 16 120 24 32 20 39 58 18 91
l-17 26 -152 -8 c-83 -4 -307 -10 -498 -14 l-346 -6 -26 -24 c-38 -35 -36 -91
3 -124 24 -20 45 -26 113 -31 107 -9 114 -12 126 -44 264 -733 927 -2542 937
-2559 14 -21 23 -23 91 -23 l75 0 13 33 c12 28 326 931 497 1427 45 129 69
185 79 185 11 0 75 -166 227 -585 282 -779 362 -990 384 -1022 37 -52 144 -61
174 -14 13 20 198 552 417 1196 55 162 138 400 184 528 123 338 163 508 179
757 7 109 -7 283 -29 356 -22 71 -63 146 -107 194 -75 81 -223 122 -331 92z"/>
</g>
</svg>
